<svg xmlns="http://www.w3.org/2000/svg" viewBox="0.346889 -699.534 519.5 698.7">
  <path d="m 506.25 -28.125 c -47.0906 0 -85.4156 -38.2125 -85.4156 -85.1906 v -334.875 c 0 -138.5906 -113.4 -251.3438 -252.7781 -251.3438 h -154.0688 c -7.5469 0 -13.6406 6.0938 -13.6406 13.6219 c 0 7.5188 6.0938 13.6219 13.6406 13.6219 c 74.6156 0 135.3375 60.3094 135.3375 134.4469 c 0 41.7469 -18.825 80.5875 -51.675 106.5375 c -61.4344 48.3469 -96.7125 120.7688 -96.8625 198.75 c 0 0.0469 0 0.1031 0 0.1313 c 0 0.0562 0 0.0938 0 0.1687 c 0 0.0375 0 0.1125 0 0.15 c 0 0.0281 0 0.0562 0 0.1125 c 0.075 34.8 7.1062 68.55 20.9063 100.3219 c 8.5688 19.7344 19.4812 38.0625 32.5781 54.8531 c -30.4875 4.5656 -53.925 30.7781 -53.925 62.3344 c 0 7.5094 6.0938 13.6219 13.6406 13.6219 h 492.2625 c 7.5281 0 13.6219 -6.1125 13.6219 -13.6219 c 0 -7.5375 -6.0938 -13.6406 -13.6219 -13.6406 z m -402.0656 -644.1562 h 63.8625 c 124.3687 0 225.5344 100.5281 225.5344 224.0906 v 281.4375 c -68.2406 -6.8062 -121.725 -64.2281 -121.725 -133.7813 v -147.4125 c 0 -54.3281 -42.3 -98.9906 -95.8406 -103.1812 c -4.1531 -50.475 -31.6969 -94.4531 -71.8313 -121.1531 z m -40.4437 621.9844 h 14.3719 c 0.1125 0.1125 0.2156 0.2062 0.3094 0.3188 l 0 0 l 21.8813 21.8438 h -70.0031 c 5.4375 -12.9844 18.3844 -22.1625 33.4406 -22.1625 z m 75.075 22.1719 l -41.1281 -41.1188 c -0.0375 -0.0562 -0.1125 -0.1125 -0.15 -0.15 c -0.075 -0.0562 -0.1125 -0.1219 -0.1875 -0.1781 c -44.6625 -43.0594 -69.2719 -100.8375 -69.3094 -162.6937 c 0.0375 -69.6937 31.5469 -134.4375 86.4656 -177.6563 c 35.7281 -28.2375 57.6563 -69.1594 61.4531 -113.8875 c 38.5219 4.0875 68.625 36.5344 68.625 75.8531 v 147.4125 c 0 84.5813 65.7 154.2094 148.9969 161.1375 v 26.0719 c 0 34.0125 15.2156 64.5563 39.2063 85.1906 h -293.9719 z" fill="#3e1e68"/>
</svg>