<?xml version="1.0" standalone="no"?>
<!DOCTYPE svg PUBLIC "-//W3C//DTD SVG 20010904//EN"
 "http://www.w3.org/TR/2001/REC-SVG-20010904/DTD/svg10.dtd">
<svg version="1.0" xmlns="http://www.w3.org/2000/svg"
 width="699.000000pt" height="699.000000pt" viewBox="0 0 699.000000 699.000000"
 preserveAspectRatio="xMidYMid meet">
<metadata>
Created by potrace 1.14, written by Peter Selinger 2001-2017
</metadata>
<g transform="translate(0.000000,699.000000) scale(0.100000,-0.100000)"
fill="#000000" stroke="none">
<path d="M929 6951 c-35 -35 -39 -44 -39 -91 0 -108 45 -141 210 -151 354 -23
655 -161 899 -414 251 -261 372 -561 372 -925 0 -275 -68 -510 -214 -733 -81
-125 -172 -222 -324 -349 -147 -123 -278 -254 -383 -382 -160 -197 -322 -483
-408 -721 -48 -132 -106 -360 -127 -505 -22 -148 -30 -439 -16 -590 40 -419
190 -841 424 -1187 l93 -139 -51 -12 c-76 -18 -203 -85 -267 -142 -69 -62
-139 -164 -174 -256 -20 -53 -28 -94 -32 -171 l-5 -103 41 -40 40 -40 2522 0
2522 0 39 39 c35 35 39 43 39 91 0 105 -52 144 -205 154 -128 9 -256 49 -373
117 -31 19 -102 79 -158 134 -90 89 -106 111 -153 205 -28 58 -61 141 -73 185
l-23 80 -5 1885 -6 1885 -22 115 c-52 269 -118 469 -233 700 -248 500 -648
897 -1154 1145 -268 131 -499 200 -802 240 -94 12 -272 15 -1015 15 l-900 0
-39 -39z m1879 -252 c1058 -115 1887 -944 2001 -2001 7 -64 11 -604 11 -1564
l0 -1467 -54 7 c-198 23 -438 123 -614 256 -269 202 -451 495 -519 833 -14 71
-17 209 -23 987 -6 898 -7 906 -29 985 -113 403 -449 704 -858 767 -70 11 -73
13 -73 39 0 50 -40 238 -71 332 -42 129 -118 284 -197 401 -74 110 -239 289
-341 368 -36 28 -70 55 -75 60 -14 12 728 10 842 -3z m-44 -1495 c203 -51 390
-205 486 -399 78 -159 73 -93 80 -1110 6 -893 7 -912 29 -1010 158 -707 695
-1201 1414 -1300 l47 -6 0 -162 c0 -191 18 -323 60 -450 55 -162 137 -296 260
-424 l60 -63 -1463 0 -1463 0 -280 283 c-356 359 -463 499 -595 772 -154 319
-223 620 -223 980 0 370 70 668 233 1000 152 309 329 525 645 789 307 258 503
584 576 961 11 58 20 117 20 131 0 29 23 31 114 8z m-994 -4819 l105 -105
-338 0 -338 0 15 29 c38 73 129 144 215 167 25 7 89 13 141 13 l95 1 105 -105z"/>
</g>
</svg>
