<svg ns="http://www.w3.org/2000/svg"> 
<g id="SvgjsG1014" featurekey="symbolFeature-0" transform="matrix(1.5037773847579956,0,0,1.5037773847579956,-39.537308747436,-30.744725116971487)" fill="#3e1e68">
<path xmlns="http://www.w3.org/2000/svg" d="M80.255,92.062c-5.023,0-9.111-4.076-9.111-9.087v-35.72c0-14.783-12.096-26.81-26.963-26.81H27.747  c-0.805,0-1.455,0.65-1.455,1.453c0,0.802,0.65,1.453,1.455,1.453c7.959,0,14.436,6.433,14.436,14.341  c0,4.453-2.008,8.596-5.512,11.364c-6.553,5.157-10.316,12.882-10.332,21.2c0,0.005,0,0.011,0,0.014c0,0.006,0,0.01,0,0.018  c0,0.004,0,0.012,0,0.016c0,0.003,0,0.006,0,0.012c0.008,3.712,0.758,7.312,2.23,10.701c0.914,2.105,2.078,4.06,3.475,5.851  c-3.252,0.487-5.752,3.283-5.752,6.649c0,0.801,0.65,1.453,1.455,1.453h52.508c0.803,0,1.453-0.652,1.453-1.453  C81.708,92.713,81.058,92.062,80.255,92.062z M37.368,23.352h6.812c13.266,0,24.057,10.723,24.057,23.903v30.02  c-7.279-0.726-12.984-6.851-12.984-14.27V47.281c0-5.795-4.512-10.559-10.223-11.006C44.587,30.891,41.649,26.2,37.368,23.352z   M33.054,89.697h1.533c0.012,0.012,0.023,0.022,0.033,0.034l0,0l2.334,2.33h-7.467C30.067,90.676,31.448,89.697,33.054,89.697z   M41.062,92.062l-4.387-4.386c-0.004-0.006-0.012-0.012-0.016-0.016c-0.008-0.006-0.012-0.013-0.02-0.019  c-4.764-4.593-7.389-10.756-7.393-17.354c0.004-7.434,3.365-14.34,9.223-18.95c3.811-3.012,6.15-7.377,6.555-12.148  c4.109,0.436,7.32,3.897,7.32,8.091v15.724c0,9.022,7.008,16.449,15.893,17.188v2.781c0,3.628,1.623,6.886,4.182,9.087H41.062z">
</path>
</g>
</svg>
